# xmcd CD database file
#
# Track frame offsets:
#	150
#	4722
#	17911
#	35788
#	53904
#	77883
#	87829
#	98949
#	126787
#	143170
#	157041
#	175210
#
# Disc length: 2607 seconds
#
# Revision: 1
# Processed by: cddbd v1.5.2PL0 Copyright (c) Steve Scherf et al.
# Submitted via: CDex 1.51
#
DISCID=9b0a2d0c
DTITLE=Ghoultown - Life After Sundown
DYEAR=2008
DGENRE=Hellbilly
TTITLE0=Cruel Winds of Dusk
TTITLE1=Dead Outlaw
TTITLE2=Against a Crooked Sky
TTITLE3=Werewolves on Wheels
TTITLE4=I Spit on Your Grave
TTITLE5=Thunder Over El Paso
TTITLE6=Find a Good Horse
TTITLE7=Drink With the Living Dead
TTITLE8=London Dungeon
TTITLE9=Train to Nowhere
TTITLE10=Under the Phantom Moon
TTITLE11=Life After Sundown
EXTD=YEAR: 2008
EXTT0=
EXTT1=
EXTT2=
EXTT3=
EXTT4=
EXTT5=
EXTT6=
EXTT7=
EXTT8=
EXTT9=
EXTT10=
EXTT11=
PLAYORDER=
